<?xml version="1.0" standalone="no"?>
<!DOCTYPE svg PUBLIC "-//W3C//DTD SVG 20010904//EN"
 "http://www.w3.org/TR/2001/REC-SVG-20010904/DTD/svg10.dtd">
<svg version="1.0" xmlns="http://www.w3.org/2000/svg"
 width="260.000000pt" height="260.000000pt" viewBox="0 0 260.000000 260.000000"
 preserveAspectRatio="xMidYMid meet">
<metadata>
Created by potrace 1.14, written by Peter Selinger 2001-2017
</metadata>
<g transform="translate(0.000000,260.000000) scale(0.100000,-0.100000)"
fill="#000000" stroke="none">
<path d="M220 1300 l0 -1020 155 0 155 0 0 460 0 460 205 0 205 0 0 -460 0
-460 155 0 155 0 0 1020 0 1020 -155 0 -155 0 0 -420 0 -420 -205 0 -205 0 0
420 0 420 -155 0 -155 0 0 -1020z"/>
<path d="M1530 1300 l0 -1020 425 0 425 0 0 135 0 135 -270 0 -270 0 0 325 0
325 230 0 230 0 0 130 0 130 -230 0 -230 0 0 295 0 295 265 0 265 0 0 135 0
135 -420 0 -420 0 0 -1020z"/>
</g>
</svg>
